<svg xmlns="http://www.w3.org/2000/svg" width="760" height="159"><path fill="#EB1C23" d="M557.348 158.918c4.632-1.2 9.308-2.254 13.89-3.625 9.645-2.887 18.625-7.2 26.785-13.137 13.946-10.148 24.325-23.113 29.434-39.66 8.535-27.648 2.504-52.363-16.535-73.887-10.297-11.64-23.235-19.433-38.016-24.117-4.754-1.508-9.605-2.699-14.414-4.035.5-.07.996-.207 1.496-.207 38.73-.012 77.457-.012 116.188-.02.449 0 .894-.152 1.344-.23h1.921c.204.078.403.219.61.23 5.758.356 11.437 1.23 17.015 2.7 19.668 5.18 35.957 15.523 48.278 31.832 6.62 8.765 11.027 18.578 13.437 29.289l.117.504.13.695c.038.168.074.336.113.504.203 1.273.406 2.543.613 3.816.027.168.055.34.086.512.062.547.129 1.098.191 1.645.02.171.035.34.055.511.055.707.113 1.418.172 2.125.004 3.465.004 6.93.008 10.399-.055.707-.113 1.414-.168 2.12l-.09.75c-.05.473-.106.942-.156 1.411-.024.172-.047.34-.075.512-.05.39-.105.78-.16 1.168-.027.172-.058.34-.09.511-.046.309-.097.621-.144.93l-.094.512c-.207 1.027-.414 2.058-.62 3.09a15.9 15.9 0 0 0-.145.504c-1.356 4.128-2.391 8.394-4.118 12.363-8.8 20.25-23.87 34.234-43.898 43.07-10.117 4.469-20.777 6.735-31.79 7.41-.839.004-1.675.008-2.515.008-38.992 0-77.984 0-116.976-.008-.63-.004-1.254-.129-1.88-.195"/><path fill="#262123" d="M299.613 79.813c0-9.29-1.398-15.208-4.101-19.954-5.352-9.41-14.39-9.664-21.067-6.132-4.414 2.336-6.918 6.308-8.488 10.894-2.348 6.86-2.734 13.93-1.816 21.067.703 5.484 2.504 10.566 6.257 14.785 4.426 4.972 11.325 6.672 17.243 4.172 4.187-1.77 6.738-5.145 8.546-9.149 2.567-5.676 3.383-11.7 3.426-15.683zm-35.86 73.246h-19.812V41.613h19.754v10.223c1.313-1.45 2.348-2.746 3.54-3.883 13.206-12.598 36.906-11.074 47.226 6.559 8.125 13.879 8.25 28.258 1.535 42.715-3.328 7.168-8.344 12.945-15.363 16.796-12.102 6.641-26.48 4.235-35.793-5.953-.293-.32-.59-.633-1.086-1.168v46.157M122.25 77.145c0-.84.04-1.68-.008-2.516-.336-6.008-1.719-11.688-5.398-16.606-5.954-7.957-15.598-7.41-21.036-4.117-4.328 2.625-6.593 6.75-7.91 11.45-1.886 6.734-1.922 13.574-.844 20.433.786 4.984 2.27 9.727 5.27 13.871 4.344 6.012 11.324 7.793 17.945 4.598 3.645-1.762 6.13-4.68 7.946-8.207 3.058-5.93 3.957-12.344 4.035-18.906zm.063 38.718v-10.449l-.25-.105c-.293.343-.586.687-.88 1.035-4.949 5.84-10.988 9.922-18.683 11.004-13.914 1.96-25.906-3.957-32.04-16.594-6.69-13.793-7.448-28.027-.382-42.035 4.535-8.992 11.535-15.473 21.5-17.961 9.363-2.336 18.25-1 26.195 4.84.832.613 1.575 1.359 2.297 2.101.72.739 1.356 1.547 2.22 2.543V6.66h19.815v109.203h-19.792M.29 115.871c-.009-.437-.024-.879-.024-1.316V13.125c0-.438.015-.879.023-1.316.32-.02.64-.047.957-.047 17.918-.004 35.84-.004 53.758-.004h.918V25.78H21.125v28.44h34.04v14.094H21.16v33.511h41.16v14.047c-.343.016-.652.05-.96.05H1.245c-.32 0-.637-.03-.957-.05M398.93 69.645c.097.035.207.113.316.113 9.36.012 18.719.012 28.078.031.684 0 .82-.332.774-.894-.223-2.696-.16-5.457-.735-8.082-1.082-4.954-3.875-8.57-9.133-9.676-11.05-2.325-20.89 7.117-19.3 18.508zm47.64 10.945h-48.277c.297 2.347.426 4.574.871 6.738 1.852 8.914 8.602 15.621 17.426 17.211 5.281.953 10.453.016 15.441-1.726 2.774-.97 5.403-2.348 8.266-3.618 1.742 3.2 3.617 6.649 5.59 10.278-2.235 1.105-4.332 2.25-6.516 3.21-8.09 3.56-16.527 5.325-25.41 4.977-17.82-.7-32.348-13.113-35.695-30.625-1.485-7.75-1.485-15.46 1.129-22.969 4.527-12.984 13.859-20.586 27.136-23.445 6.664-1.434 13.364-1.383 19.895.797 9.289 3.102 14.945 9.793 18.015 18.852 2.188 6.445 2.735 13.113 2.274 19.875-.008.113-.07.226-.145.445M233.773 103.43l3.352 9.61c-1.637.698-3.203 1.468-4.84 2.054-7.297 2.62-14.773 3.437-22.402 1.843-8.582-1.796-13.578-7.203-15.172-15.738a39.506 39.506 0 0 1-.668-7.144c-.063-13.598-.031-27.196-.031-40.79v-1.53H183.68v-10.16h10.332v-1.427c0-5.12.015-10.238-.016-15.359-.008-.805.168-1.168 1.04-1.36 6.238-1.363 12.464-2.796 18.835-4.238v22.325h19.442V51.66h-19.43v1.383c0 12.156-.024 24.312.012 36.469.008 3.125.355 6.222 1.378 9.207 1.805 5.25 5.391 7.593 10.88 6.75 2.527-.39 4.976-1.313 7.62-2.04M506.598 109.203l6.238-10.238c1.355.93 2.602 1.851 3.91 2.672 3.41 2.14 6.992 3.879 11.059 4.351 2.27.266 4.48-.054 6.574-.945 5.226-2.219 7.121-8.305 3.84-13.106-1.39-2.035-3.313-3.808-5.285-5.316-3.934-3.008-8.13-5.672-12.106-8.625-3.59-2.668-6.742-5.797-8.61-9.969-3.777-8.453-.929-17.832 7.04-23.289 4.543-3.11 9.62-4.636 15.078-4.918 6.937-.36 13.637.598 19.832 3.961 1.082.59 2.07 1.356 3.09 2.059.289.2.531.465.89.781a21881.33 21881.33 0 0 1-6.257 8.738c-2.383-1.18-4.602-2.441-6.946-3.402-2.738-1.121-5.629-1.527-8.578-.824-6.074 1.453-8.238 7.613-4.105 12.289 1.906 2.156 4.351 3.86 6.648 5.64 3.508 2.711 7.227 5.16 10.625 7.997 3.98 3.324 7.05 7.418 8.707 12.414 2.668 8.05.336 15.656-6.543 21.332-5.344 4.41-11.566 6.511-18.43 6.863-9.89.504-18.624-2.633-26.671-8.465M495.8 55.57c-2.82-1.98-5.73-3.53-9.003-4.3-2.535-.602-5.059-.704-7.55.222-4.876 1.813-6.653 7.106-3.47 11.203 1.614 2.075 3.778 3.77 5.871 5.407 4.028 3.148 8.317 5.972 12.243 9.234 3.859 3.207 6.765 7.242 8.39 12.066 2.692 7.993.414 15.606-6.379 21.282-5.554 4.64-12.05 6.757-19.222 7.011-9.543.34-17.977-2.758-25.664-8.21-.094-.067-.188-.141-.36-.274l6.258-10.29c.484.356.922.677 1.356.993 3.656 2.645 7.527 4.852 11.988 5.824 2.64.578 5.246.426 7.781-.539 5.277-2.008 7.512-7.87 4.574-12.691-1.218-1.996-2.96-3.801-4.808-5.254-3.356-2.64-7.04-4.863-10.45-7.438-2.542-1.918-5.109-3.902-7.257-6.23-8.598-9.297-6.856-22.309 3.765-29.215 4.399-2.855 9.266-4.273 14.469-4.547 6.727-.355 13.25.504 19.305 3.66 1.582.825 3.031 1.903 4.703 2.965l-6.54 9.121M326.348 41.555h19.605v12.804c.098.051.195.098.29.145.26-.348.519-.7.784-1.043 2.516-3.246 4.899-6.613 7.598-9.703 2.063-2.363 4.785-3.871 8.055-4.012 2.53-.11 4.984.422 7.129 1.715 2.171 1.309 4.156 2.941 6.183 4.484.211.16.344.758.219.996-2.348 4.399-4.738 8.774-7.129 13.168-1.414-.586-2.707-1.21-4.059-1.668-7.367-2.484-13.668.332-16.644 7.496-.688 1.645-1.234 3.399-1.508 5.157-.406 2.633-.7 5.316-.719 7.98-.074 11.793-.03 23.59-.03 35.383v1.387h-19.774v-74.29m-171.395 74.301V41.59h19.735v74.265h-19.735m9.738-84.093c-6.64-.047-11.777-5.625-11.718-12.73.047-6.095 5.41-11.345 11.539-11.294 6.625.059 12.234 5.45 12.168 11.692-.075 7.004-5.297 12.375-11.989 12.332M71.719 150.508h-2.95v-16.696h2.985c.031.497.062.997.105 1.657 3.625-2.883 7.145-3.055 10.313-.082 1.832-.711 3.473-1.614 5.223-1.969 3.425-.695 6.296 1.555 6.437 5.055.156 3.992.035 7.992.035 12.047h-2.976c-.028-.317-.082-.618-.082-.918-.008-2.922 0-5.84-.008-8.762 0-.52-.008-1.04-.063-1.555-.222-2.27-1.386-3.457-3.457-3.562-2.215-.11-3.84 1.086-4.226 3.234-.176.973-.192 1.984-.2 2.98-.023 2.836-.007 5.672-.007 8.57h-3.082c0-3.23.015-6.378-.012-9.53-.008-.836-.066-1.688-.262-2.493-.422-1.734-1.488-2.59-3.203-2.738-1.668-.144-3.25.606-3.832 2.098-.398 1.012-.594 2.16-.621 3.254-.086 3.039-.031 6.078-.04 9.117 0 .078-.038.152-.077.293m97.719-8.293c.343 1.2.566 2.77 1.226 4.133 1.504 3.101 5.531 3.367 7.41.468 1.758-2.714 1.996-5.695.582-8.664-.894-1.882-2.496-2.734-4.586-2.59-2.078.145-3.39 1.313-3.992 3.239-.305.976-.387 2.023-.64 3.414zm10.042-6.442v-1.964h3.051c.024.375.059.722.059 1.074.004 5.117.015 10.234 0 15.351-.02 5.575-3.238 8.754-8.824 8.75-2.825-.004-5-.55-6.715-1.738l.851-1.965c1.977 1.07 4.008 1.555 6.168 1.5 2.66-.07 4.446-1.34 5.055-3.902.344-1.442.348-2.965.527-4.625-.367.156-.5.168-.55.242-2.899 3.984-10.532 3.531-12.34-2.95-.992-3.558-.657-6.886 1.91-9.765 2.375-2.668 7.363-3.828 10.808-.008M111.637 141.8c-.356-1.269-.528-2.609-1.086-3.76-1.543-3.165-5.875-3.454-7.73-.462-1.762 2.836-1.848 5.922-.286 8.906.899 1.72 2.543 2.383 4.434 2.293 1.789-.086 3.008-1.117 3.59-2.734.484-1.336.71-2.758 1.078-4.242zm-10.086-15.913v10c.11.086.219.172.332.258.176-.297.3-.653.543-.887 3.379-3.301 9.238-2.371 11.27 1.879 1.706 3.57 1.5 7.168-.637 10.511-2.493 3.903-7.54 4.485-10.985 1.387-.11-.098-.226-.187-.472-.379-.051.696-.094 1.262-.141 1.875h-2.957v-24.644h3.047M227.488 139.84c-1.343.402-2.62.633-3.754 1.164-1.054.488-2.136 1.137-2.89 1.992-1.203 1.367-.91 3.606.363 4.645 1.14.937 2.816.675 4.164-.711 1.895-1.946 2.238-4.367 2.117-7.09zm-8.43-3.953c-.331-.434-.714-.93-1.152-1.492 1.871-2.036 4.223-2.7 6.824-2.524 4.22.285 6.055 2.305 6.094 6.567.024 2.476-.043 4.957.028 7.433.039 1.422.269 2.84.437 4.461-.875 0-1.93.035-2.98-.027-.207-.016-.504-.371-.567-.621-.164-.645-.223-1.317-.344-2.125-.722.64-1.379 1.25-2.062 1.82-1.434 1.184-3.043 1.746-4.902 1.254-3.543-.934-5.086-5.711-2.555-8.516 1.117-1.246 2.793-2.066 4.344-2.82 1.386-.668 2.937-1.02 4.433-1.43.742-.203.836-.554.633-1.215-.637-2.082-2.758-3.101-5.152-2.3-1.035.343-1.977.972-3.078 1.535m-88.5 6.218c-.301-1.277-.45-2.523-.887-3.66-.73-1.886-2.184-2.898-4.266-2.898-2.047 0-3.613.996-4.367 2.95-.976 2.53-.91 5.097.149 7.585.765 1.793 2.214 2.695 4.16 2.703 1.996.012 3.511-.887 4.226-2.758.477-1.25.664-2.605.985-3.922zm3.164.004c-.094 6.489-5.399 10.45-11.266 8.415-3.305-1.145-5.363-4.34-5.41-8.387-.043-3.922 1.953-7.028 5.332-8.29 3.293-1.234 7.082-.3 9.293 2.278 1.379 1.61 2.086 3.672 2.05 5.984m14.633-8.351h3.012v16.738h-2.96c-.032-.48-.063-.95-.102-1.57-.317.203-.543.39-.805.512-1.113.511-2.191 1.253-3.363 1.46-4.317.774-7.082-1.632-7.102-6.011-.015-3.672-.004-7.344-.004-11.094h3.078v1.14c0 2.88-.011 5.758.012 8.633.008.754.07 1.524.23 2.254.356 1.602 1.336 2.586 3.012 2.828 1.707.247 3.192-.226 4.016-1.734a8.185 8.185 0 0 0 .933-3.398c.13-2.832.043-5.672.043-8.512v-1.246M27.156 133.758h3.055v16.734h-2.938c-.043-.488-.078-.953-.136-1.64l-1.114.812c-1.68 1.215-3.566 1.57-5.578 1.254-2.62-.414-4.336-2.047-4.472-4.86-.196-4.054-.051-8.128-.051-12.269h3.043c0 2.996-.012 5.941.008 8.887.007.992 0 2.008.183 2.976.344 1.801 1.324 2.696 2.985 2.985 1.761.304 3.25-.239 4.113-1.77.523-.93.824-2.094.863-3.164.106-3.27.04-6.543.04-9.945M62.453 140.27c.293-2.266-1.062-4.688-3.457-4.739-2.629-.058-4.633 1.922-4.629 4.739h8.086zm-8.336 2.09c-.07 5.566 4.832 7.972 10.227 5.015.285.504.566 1.008.906 1.61-2.223 1.699-4.656 2.327-7.336 1.91-3.812-.598-6.117-2.88-6.852-6.696-.843-4.367.622-8.12 3.868-9.894 4.941-2.703 9.832-.14 10.406 5.457.082.816.098 1.644.152 2.597h-11.37M37.102 133.352c1.453 2.074 2.828 4.027 4.304 6.125 1.211-1.672 2.43-3.192 3.453-4.832.692-1.106 1.371-1.407 2.457-.653.254.18.547.305.914.504l-5.335 6.965c2.046 2.676 4.074 5.328 6.214 8.121-1.007.469-1.925.902-2.964 1.387l-5.282-7.352c-1.754 2.48-3.441 4.871-5.195 7.352a719.87 719.87 0 0 0-2.465-1.465c2.082-2.664 4.086-5.234 6.172-7.906-1.71-2.243-3.422-4.48-5.223-6.836 1.012-.485 1.926-.922 2.95-1.41M.531 127.055h3.235v21.066h9.761v2.387H.531v-23.453M191.734 148.543l1.586-1.852c.688.422 1.285.93 1.977 1.176.805.29 1.7.528 2.535.469 2.277-.16 3.234-2.356 1.86-4.184-.422-.562-1.008-1.015-1.575-1.453-1.043-.808-2.144-1.539-3.183-2.347-1.528-1.196-2.383-2.727-1.93-4.707.437-1.922 1.851-2.926 3.64-3.446 2.415-.699 4.649-.375 6.774 1.336l-1.262 1.676c-.43-.207-.797-.484-1.199-.559-1.039-.187-2.133-.527-3.137-.37-1.695.265-2.16 2.019-.98 3.277.406.433.91.773 1.383 1.144 1.129.887 2.324 1.703 3.394 2.656 1.664 1.48 2.543 3.336 1.899 5.578-.633 2.196-2.368 3.266-4.485 3.684-2.703.535-5.129-.094-7.297-2.078M156.09 133.77h2.906c.043.546.086 1.05.121 1.5 1.063-.633 2.055-1.47 3.196-1.848 1.406-.465 2.363.574 3.257 1.55-.172.286-.324.512-.453.758-.48.91-1.012 1.317-2.148.79-1.38-.633-2.598-.125-3.11 1.312-.43 1.215-.656 2.55-.699 3.844-.101 2.91-.031 5.824-.031 8.824h-3.04v-16.73M210.098 146.152c1.316-.004 2.355 1.024 2.347 2.332-.011 1.25-1.011 2.278-2.254 2.309-1.308.035-2.386-.988-2.41-2.277a2.312 2.312 0 0 1 2.317-2.364m28.433.004a2.299 2.299 0 0 1 2.254 2.317c0 1.304-1.09 2.363-2.387 2.316a2.298 2.298 0 0 1-2.246-2.324c.008-1.344 1.032-2.336 2.38-2.309"/></svg>