<svg xmlns="http://www.w3.org/2000/svg" viewBox="0 0 111.42 36.53">
  <defs>
    <style>
      .cls-1 {
        fill: #cc1236;
      }
    </style>
  </defs>
  <title>Fichier 1</title>
  <g id="Calque_2" data-name="Calque 2">
    <g id="Calque_1-2" data-name="Calque 1">
      <g>
        <path class="cls-1" d="M52.11,23.43h-3V2.95h3v9.23c.74-1.62,2.81-2.3,4.21-2.3,3.38,0,5.37,2.22,5.37,6v7.56h-3V16c0-2.07-1.27-3.3-2.92-3.3a3.43,3.43,0,0,0-3.69,3.55Z"/>
        <path class="cls-1" d="M87.31,21.53a5.33,5.33,0,0,1-4.46,2.19,6.67,6.67,0,0,1-6.73-6.93,6.65,6.65,0,0,1,6.73-6.9A5.26,5.26,0,0,1,87.31,12V10.17h2.9V23.43h-2.9Zm-4.12-.65a4,4,0,0,0,4.09-4.12,4,4,0,0,0-4.09-4,3.93,3.93,0,0,0-4.06,4A4,4,0,0,0,83.19,20.88Z"/>
        <path class="cls-1" d="M74,23.44H64.69V21.85h0l5.43-6.44a2.39,2.39,0,0,0,.7-1.47c0-.75-.66-1.27-1.61-1.27a1.91,1.91,0,0,0-1.84,1.8v0L64.71,14v0a4.51,4.51,0,0,1,4.66-4.13,4.12,4.12,0,0,1,4.36,4.06,5.16,5.16,0,0,1-1.4,3.38l-3,3.38H74Z"/>
      </g>
      <g>
        <path class="cls-1" d="M55.39,28.12l-.21.2-1.45,1.41A2.25,2.25,0,0,0,53,31.34v.08A2.16,2.16,0,0,0,53.66,33a2.19,2.19,0,0,0,1.61.69h0A2.27,2.27,0,0,0,56.92,33a2.24,2.24,0,0,0,.71-1.62h0v-.05A2.19,2.19,0,0,0,57,29.75l-.21.2.21-.2L55.6,28.33Zm-.11,5a1.59,1.59,0,0,1-1.2-.51,1.56,1.56,0,0,1-.47-1.15v-.06h0a1.66,1.66,0,0,1,.54-1.21l1.24-1.2,1.18,1.21A1.6,1.6,0,0,1,57,31.33v0a1.75,1.75,0,0,1-1.76,1.71"/>
        <g>
          <path class="cls-1" d="M49.68,32.37a.9.9,0,0,0,1,.73c.54,0,.89-.27.89-.67s-.16-.54-.6-.65l-.58-.14a1.16,1.16,0,0,1-1.06-1.37,1.3,1.3,0,0,1,1.37-1A1.22,1.22,0,0,1,52,30.38h-.58a.71.71,0,0,0-.74-.51.73.73,0,0,0-.78.51c-.09.49.32.63.62.7l.58.14a1.18,1.18,0,0,1,1.06,1.22c0,.73-.67,1.23-1.54,1.23a1.4,1.4,0,0,1-1.47-1.3Z"/>
          <path class="cls-1" d="M61.72,29.38h.6v4.2h-.6v-.69a1.56,1.56,0,0,1-1.4.78c-1,0-1.63-.7-1.62-1.85V29.38h.6v2.45c0,.77.37,1.25,1,1.25a1.31,1.31,0,0,0,1.4-1.4Z"/>
          <path class="cls-1" d="M66.29,30a1.53,1.53,0,0,0-.61-.14c-.85,0-1.21,1-1.21,2.12v1.57h-.6v-4.2h.6v1c.21-.72.59-1,1.21-1a1.37,1.37,0,0,1,.68.16Z"/>
          <path class="cls-1" d="M70.65,33.09a2.22,2.22,0,0,1-1.52.58,2.14,2.14,0,0,1-2.2-2.21,2.12,2.12,0,0,1,2.2-2.18,2.23,2.23,0,0,1,1.51.57l-.42.42a1.65,1.65,0,0,0-1.09-.4,1.54,1.54,0,0,0-1.6,1.58,1.56,1.56,0,0,0,1.6,1.61,1.62,1.62,0,0,0,1.09-.41Z"/>
          <path class="cls-1" d="M71.43,31.47a2.06,2.06,0,0,1,2.13-2.18,2,2,0,0,1,2.06,2.18,2.72,2.72,0,0,1,0,.28H72a1.53,1.53,0,0,0,2.83.6l.6.14a2.05,2.05,0,0,1-1.92,1.19A2.08,2.08,0,0,1,71.43,31.47ZM75,31.19a1.42,1.42,0,0,0-1.45-1.31A1.47,1.47,0,0,0,72,31.19Z"/>
          <path class="cls-1" d="M82.73,33.09a2.22,2.22,0,0,1-1.52.58A2.14,2.14,0,0,1,79,31.47a2.12,2.12,0,0,1,2.2-2.18,2.23,2.23,0,0,1,1.51.57l-.42.42a1.65,1.65,0,0,0-1.09-.4,1.54,1.54,0,0,0-1.6,1.58,1.56,1.56,0,0,0,1.6,1.61,1.62,1.62,0,0,0,1.09-.41Z"/>
          <path class="cls-1" d="M86.35,30a1.54,1.54,0,0,0-.61-.14c-.85,0-1.21,1-1.21,2.12v1.57h-.6v-4.2h.6v1c.21-.72.59-1,1.21-1a1.37,1.37,0,0,1,.68.16Z"/>
          <path class="cls-1" d="M87,31.47a2.06,2.06,0,0,1,2.13-2.18,2,2,0,0,1,2.06,2.18,2.72,2.72,0,0,1,0,.28H87.61a1.53,1.53,0,0,0,2.83.6l.6.14a2.05,2.05,0,0,1-1.92,1.19A2.08,2.08,0,0,1,87,31.47Zm3.57-.28a1.42,1.42,0,0,0-1.45-1.31,1.47,1.47,0,0,0-1.51,1.31Zm-1.23-2.6h-.61l.63-1.21h.74Z"/>
          <path class="cls-1" d="M96.44,33.58h-.6v-.72a1.85,1.85,0,0,1-1.58.81,2.1,2.1,0,0,1-2.15-2.21,2.08,2.08,0,0,1,2.15-2.18,1.83,1.83,0,0,1,1.58.78v-.69h.6Zm-2.19-.51a1.52,1.52,0,0,0,1.58-1.6,1.55,1.55,0,0,0-1.58-1.58,1.5,1.5,0,0,0-1.55,1.58A1.53,1.53,0,0,0,94.25,33.07Z"/>
          <path class="cls-1" d="M98.27,33.58V29.92h-.76v-.54h.76V27.8h.6v1.58h.89v.54h-.89v3.66Z"/>
          <path class="cls-1" d="M101.15,27.38a.43.43,0,1,1-.46.43A.44.44,0,0,1,101.15,27.38Zm.29,2h-.59v4.2h.59Z"/>
          <path class="cls-1" d="M103.11,29.38l1.43,3.5,1.42-3.5h.64l-1.75,4.2h-.64l-1.74-4.2Z"/>
          <path class="cls-1" d="M107.23,31.47a2.06,2.06,0,0,1,2.13-2.18,2,2,0,0,1,2.06,2.18,2.72,2.72,0,0,1,0,.28h-3.56a1.53,1.53,0,0,0,2.83.6l.6.14a2.05,2.05,0,0,1-1.92,1.19A2.08,2.08,0,0,1,107.23,31.47Zm3.57-.28a1.42,1.42,0,0,0-1.45-1.31,1.47,1.47,0,0,0-1.51,1.31Z"/>
        </g>
      </g>
      <g>
        <path class="cls-1" d="M21.64,20.88l-3.25-3.35L15,20.83a4.64,4.64,0,0,0-1.47,3.31,4.64,4.64,0,0,0,4.63,4.76A4.78,4.78,0,0,0,23,24.23,4.48,4.48,0,0,0,21.64,20.88Z"/>
        <path class="cls-1" d="M14.17,14.65l2.68,2.76,2.8-2.72A3.83,3.83,0,0,0,20.86,12,3.82,3.82,0,0,0,17.05,8a3.94,3.94,0,0,0-4,3.85A3.69,3.69,0,0,0,14.17,14.65Z"/>
        <path class="cls-1" d="M21.13,14.86l-1.91,1.85,1.88,1.94a2.64,2.64,0,0,0,1.89.83,2.65,2.65,0,0,0,2.71-2.63A2.72,2.72,0,0,0,23,14.11,2.54,2.54,0,0,0,21.13,14.86Z"/>
      </g>
      <path class="cls-1" d="M18.27,36.53A18.27,18.27,0,1,1,36.53,18.27,18.29,18.29,0,0,1,18.27,36.53Zm0-33.58A15.32,15.32,0,1,0,33.58,18.27,15.33,15.33,0,0,0,18.27,2.95Z"/>
    </g>
  </g>
</svg>