<svg id="Layer_1" data-name="Layer 1" xmlns="http://www.w3.org/2000/svg" viewBox="0 0 408.93 128.84"><defs><style>.cls-1{fill:#42413f;}</style></defs><title>logo-white</title><path class="cls-1" d="M95,100.1H56.74V95.43c1-.09,2.54-.23,4.47-.38a13.84,13.84,0,0,0,4-.78A5.49,5.49,0,0,0,68,91.9a8,8,0,0,0,.9-4.12V55.08H26v32a8.77,8.77,0,0,0,.76,3.83,6.34,6.34,0,0,0,3,2.73,15.86,15.86,0,0,0,4,1.16,29,29,0,0,0,4.48.65v4.67H0V95.43c1-.09,2.51-.23,4.45-.38a13.85,13.85,0,0,0,4-.78,5.46,5.46,0,0,0,2.81-2.35,8.2,8.2,0,0,0,.91-4.11V21.67a8.59,8.59,0,0,0-.83-3.78A5.82,5.82,0,0,0,8.47,15.2a25,25,0,0,0-4.2-1.48A25.46,25.46,0,0,0,0,12.93V8.28H38.23v4.65a31.5,31.5,0,0,0-4.48.6,28.44,28.44,0,0,0-4,1,4.57,4.57,0,0,0-3,2.58A10.07,10.07,0,0,0,26,21V49.38h42.9V21.65a8.35,8.35,0,0,0-.84-3.77,5.8,5.8,0,0,0-2.87-2.68A23.85,23.85,0,0,0,61,13.72a24.33,24.33,0,0,0-4.26-.79V8.28H95v4.65a31.25,31.25,0,0,0-4.49.6,29.83,29.83,0,0,0-4,1,4.67,4.67,0,0,0-3,2.6A10,10,0,0,0,82.79,21V87.09a8.7,8.7,0,0,0,.74,3.82,6.52,6.52,0,0,0,3,2.71,16.77,16.77,0,0,0,4,1.17,28.83,28.83,0,0,0,4.49.64Z"/><path class="cls-1" d="M165.46,99l-20.85,1.37-1-.91V91.41h-.38c-1,1.07-2.18,2.22-3.47,3.47a25.44,25.44,0,0,1-4.44,3.32,28.49,28.49,0,0,1-5.61,2.65,25,25,0,0,1-7.66.91q-8.43,0-12.83-5.56c-2.94-3.72-4.41-9.08-4.41-16.14V49.41a8,8,0,0,0-.88-3.93,8.1,8.1,0,0,0-2.57-2.76,8.28,8.28,0,0,0-2.94-1.13,23.62,23.62,0,0,0-3.7-.49V36.88L116,35.52l1,.89V80.76c0,4.61,1,8.1,3.09,10.41a9.55,9.55,0,0,0,7.4,3.52,17.45,17.45,0,0,0,6.31-1.1A18.85,18.85,0,0,0,138.44,91a23.34,23.34,0,0,0,3-2.89,16.21,16.21,0,0,0,2-2.82V49a7.6,7.6,0,0,0-.92-3.81,8.5,8.5,0,0,0-2.52-2.83,7.05,7.05,0,0,0-3.47-.95c-1.52-.11-3.24-.2-5.13-.28V36.88l23.26-1.36,1,.91V87.18a7.18,7.18,0,0,0,.9,3.75,8.15,8.15,0,0,0,2.53,2.68,7.08,7.08,0,0,0,2.78.93,31.1,31.1,0,0,0,3.54.29Z"/><path class="cls-1" d="M237.6,100.1H208.4V95.89c1.95-.23,3.59-.45,5-.66s2-.78,2-1.69a4.51,4.51,0,0,0-.64-1.81c-.44-.83-.85-1.59-1.3-2.27-1.08-1.69-2.56-4-4.43-6.78s-4.19-6.22-6.92-10.15c-2.23,2.8-4.32,5.54-6.2,8.2s-3.88,5.48-6,8.47a17,17,0,0,0-.92,1.63,3.6,3.6,0,0,0-.5,1.55c0,1,.62,1.73,1.84,2.37A15.78,15.78,0,0,0,195.9,96v4.09H172.25v-4a22.29,22.29,0,0,0,12-7.72c1.34-1.73,3.21-4.14,5.61-7.18s5.5-7.15,9.29-12.38l-8-11.53q-4.74-6.8-7.86-11.34a15.36,15.36,0,0,0-3.85-4,10.51,10.51,0,0,0-6.11-1.53V36.27H201v4.22a31.8,31.8,0,0,0-4,.25c-1.33.18-2,.57-2,1.17a2.81,2.81,0,0,0,.39,1.32,13.25,13.25,0,0,0,1,1.54c.93,1.47,2.41,3.73,4.42,6.81s4.15,6.3,6.48,9.71L212.49,54c2-2.76,3.84-5.4,5.53-7.91a10.25,10.25,0,0,0,.53-1.13,4.33,4.33,0,0,0,.25-1.33c0-.91-.74-1.63-2.19-2.17a23.16,23.16,0,0,0-4.17-1.14V36.27h23.49v4a27.25,27.25,0,0,0-7.77,3.09,20.86,20.86,0,0,0-4.74,4.11c-1.41,1.77-3.11,4-5.07,6.55s-4.7,6.25-8.24,10.93q5.91,8.3,9.56,13.61t7.44,10.94A16.9,16.9,0,0,0,231.28,94a12.1,12.1,0,0,0,6.32,1.92Z"/><path class="cls-1" d="M274.3,100.1H243.13V95.89c1-.09,2.07-.2,3.19-.29a16.16,16.16,0,0,0,2.81-.5,4.7,4.7,0,0,0,2.72-2,6.82,6.82,0,0,0,.91-3.77V15.35a9.43,9.43,0,0,0-1-4.37,8.49,8.49,0,0,0-2.61-3.22,14.19,14.19,0,0,0-4.3-1.41,36.93,36.93,0,0,0-5-.77V1.37L264,0,265,1V88.52a7.26,7.26,0,0,0,.82,3.71,5.38,5.38,0,0,0,2.66,2.24,15.51,15.51,0,0,0,2.77,1,20.82,20.82,0,0,0,3.08.45Z"/><path class="cls-1" d="M324.55,60.65a51,51,0,0,0-.62-7.69,23.73,23.73,0,0,0-2-6.85,13,13,0,0,0-4.05-4.81,11,11,0,0,0-6.63-1.87A13.86,13.86,0,0,0,300.05,45c-3,3.75-4.59,8.94-4.87,15.61ZM339,85.11a32.54,32.54,0,0,1-10.76,12.13,27.15,27.15,0,0,1-15.48,4.52A31.34,31.34,0,0,1,299.26,99a26.21,26.21,0,0,1-9.56-7.36,31.43,31.43,0,0,1-5.6-10.87,45.64,45.64,0,0,1-1.85-13.13,38.12,38.12,0,0,1,2-12.21A34.44,34.44,0,0,1,290,44.7a28.1,28.1,0,0,1,9.17-7.41,26.34,26.34,0,0,1,12.3-2.82,29.7,29.7,0,0,1,12,2.19,21.5,21.5,0,0,1,8.12,6A23.85,23.85,0,0,1,336,51.18a37.2,37.2,0,0,1,1.46,10.65v4.24H295.18a51.51,51.51,0,0,0,1.21,11.45,27.23,27.23,0,0,0,3.79,9,18,18,0,0,0,6.61,6,20.28,20.28,0,0,0,9.7,2.18,18,18,0,0,0,9.94-2.7c2.78-1.79,5.47-5,8.05-9.66Z"/><path class="cls-1" d="M341.64,121a7.72,7.72,0,0,1,1.78-5.28,5.64,5.64,0,0,1,4.43-2,7.56,7.56,0,0,1,3.55.76,10.45,10.45,0,0,1,2.65,2,18.75,18.75,0,0,1,2.06,2.64c.73,1.11,1.31,2,1.74,2.75q3.22-1.74,7.72-9.1a73.94,73.94,0,0,0,6.49-12.91Q365.93,84.43,361,72.31t-10.4-25.08a9.3,9.3,0,0,0-4.14-4.62,17.27,17.27,0,0,0-5.83-2.13v-4.2H369.7v4.47a20.44,20.44,0,0,0-4.67.81c-1.8.5-2.71,1.18-2.71,2,.48,1.29.79,2.24,1,2.85q2.43,6.39,7.48,18.46t7.81,19.29q2.93-6.92,6-14.32t7-17.47c.3-.83.72-2,1.28-3.4a10.47,10.47,0,0,0,.85-3.72c0-1.13-1-2.18-2.93-3.15a17.82,17.82,0,0,0-5.62-1.79V36.28h23.7v3.94a16.43,16.43,0,0,0-5.11,2.25,11.7,11.7,0,0,0-4.72,5.41q-7.68,17.91-13.67,32.6t-9.1,21.65a123.72,123.72,0,0,1-7.25,14.14,43.48,43.48,0,0,1-6.24,8,18.49,18.49,0,0,1-5.4,3.66,13.64,13.64,0,0,1-5,.93q-5.06,0-7.92-2.37a7.08,7.08,0,0,1-2.88-5.51"/></svg>