<?xml version="1.0" encoding="UTF-8"?>
<svg id="Calque_1" xmlns="http://www.w3.org/2000/svg" xmlns:xlink="http://www.w3.org/1999/xlink"
     viewBox="0 0 533.78 92.36">
  <defs>
    <style>
      .cls-1{fill:none;}.cls-2{clip-path:url(#clippath);}.cls-3{fill:#b3004c;}.cls-4{fill:#1d1d1b;}.cls-5{fill:#888887;}.cls-6{clip-path:url(#clippath-1);}.cls-7{fill:url(#Dégradé_sans_nom);}.cls-8{fill:url(#Dégradé_sans_nom_2);}
    </style>
    <clipPath id="clippath">
      <path class="cls-1"
            d="M60.59,10L21.05,76.96c-4.19,7.31-12.04,12.25-21.05,12.32H67.43c3.21,0,5.81-2.6,5.81-5.81V15.81c0-3.21-2.6-5.81-5.81-5.81h-6.84Z"/>
    </clipPath>
    <linearGradient id="Dégradé_sans_nom" x1="-201.04" y1="87.97" x2="-200.04" y2="87.97"
                    gradientTransform="translate(5947.09 13536.95) rotate(90) scale(67.19)"
                    gradientUnits="userSpaceOnUse">
      <stop offset="0" stop-color="#a2c4d8"/>
      <stop offset=".23" stop-color="#a2c4d8"/>
      <stop offset=".27" stop-color="#a6c8dc"/>
      <stop offset=".44" stop-color="#b7d8eb"/>
      <stop offset=".64" stop-color="#c0e2f5"/>
      <stop offset=".89" stop-color="#c4e5f8"/>
      <stop offset="1" stop-color="#c4e5f8"/>
    </linearGradient>
    <clipPath id="clippath-1">
      <path class="cls-1"
            d="M59.24,5.35c-.36,0-.69,.08-.99,.23h0l-.05,.02s-.07,.04-.11,.06l-8.07,4.34L9.23,31.93h-.02c-1.81,1-3.04,2.92-3.04,5.13s1.31,4.25,3.22,5.21h0c8.75,3.74,14.88,12.42,14.88,22.53,0,4.43-1.18,8.58-3.23,12.16L60.59,10l.67-1.14h0c.21-.35,.32-.75,.32-1.18,0-1.28-1.04-2.32-2.32-2.32h-.02Z"/>
    </clipPath>
    <linearGradient id="Dégradé_sans_nom_2" x1="-196.42" y1="90.28" x2="-195.42" y2="90.28"
                    gradientTransform="translate(3128.75 6751.38) rotate(90) scale(34.28)"
                    gradientUnits="userSpaceOnUse">
      <stop offset="0" stop-color="#dadada"/>
      <stop offset="0" stop-color="#dadada"/>
      <stop offset=".45" stop-color="#f6f6f6"/>
      <stop offset="1" stop-color="#b2b2b2"/>
    </linearGradient>
  </defs>
  <g class="cls-2">
    <rect class="cls-7" x="-13.16" y="1.66" width="99.55" height="95.94"
          transform="translate(-22.54 67.06) rotate(-70)"/>
  </g>
  <g class="cls-6">
    <rect class="cls-8" x="-11.31" y="-3.3" width="90.37" height="88.9"
          transform="translate(-19.39 39.4) rotate(-48.66)"/>
  </g>
  <path class="cls-3"
        d="M107.55,59.41c-7.36,0-12.66-1.72-17.34-6.47l4.95-4.88c3.58,3.58,7.5,4.68,12.52,4.68,6.4,0,10.12-2.75,10.12-7.5,0-2.13-.62-3.92-1.93-5.09-1.24-1.17-2.48-1.65-5.37-2.06l-5.78-.83c-3.99-.55-7.16-1.93-9.29-3.92-2.41-2.27-3.58-5.37-3.58-9.36,0-8.53,6.19-14.38,16.38-14.38,6.47,0,11.01,1.65,15.21,5.57l-4.75,4.68c-3.03-2.89-6.54-3.79-10.67-3.79-5.78,0-8.95,3.3-8.95,7.64,0,1.79,.55,3.37,1.86,4.54,1.24,1.1,3.23,1.93,5.5,2.27l5.58,.83c4.54,.69,7.09,1.79,9.15,3.65,2.68,2.34,3.99,5.85,3.99,10.05,0,9.02-7.36,14.38-17.62,14.38"/>
  <path class="cls-3"
        d="M159.86,54.18c-3.37,3.37-7.71,5.23-12.94,5.23s-9.5-1.86-12.87-5.23c-4.82-4.82-4.75-10.25-4.75-19.68s-.07-14.86,4.75-19.68c3.37-3.37,7.64-5.23,12.87-5.23s9.57,1.86,12.94,5.23c4.82,4.82,4.68,10.25,4.68,19.68s.14,14.86-4.68,19.68m-5.64-34.89c-1.72-1.86-4.4-3.03-7.29-3.03s-5.58,1.17-7.3,3.03c-2.41,2.62-2.89,5.37-2.89,15.21s.48,12.59,2.89,15.21c1.72,1.86,4.4,3.03,7.3,3.03s5.57-1.17,7.29-3.03c2.41-2.61,2.89-5.37,2.89-15.21s-.48-12.59-2.89-15.21"/>
  <polygon class="cls-3" points="170.08 59 170.08 10 177.51 10 177.51 52.32 201.11 52.32 201.11 59 170.08 59"/>
  <path class="cls-3"
        d="M238.94,59l-3.37-9.84h-19.34l-3.37,9.84h-7.91l17.96-49h5.99l17.96,49h-7.92Zm-12.87-37.92l-7.64,21.75h15.07l-7.43-21.75Z"/>
  <path class="cls-3"
        d="M277.58,59l-10.32-20.64h-9.29v20.64h-7.43V10h18.99c9.29,0,15.21,5.99,15.21,14.31,0,7.02-4.27,11.49-9.77,13.01l11.28,21.68h-8.67Zm-8.6-42.32h-11.01v15.35h11.01c4.95,0,8.33-2.82,8.33-7.64s-3.37-7.71-8.33-7.71"/>
  <path class="cls-5"
        d="M319.49,59.41c-7.36,0-12.66-1.72-17.34-6.47l4.95-4.88c3.58,3.58,7.5,4.68,12.52,4.68,6.4,0,10.12-2.75,10.12-7.5,0-2.13-.62-3.92-1.93-5.09-1.24-1.17-2.48-1.65-5.37-2.06l-5.78-.83c-3.99-.55-7.16-1.93-9.29-3.92-2.41-2.27-3.58-5.37-3.58-9.36,0-8.53,6.19-14.38,16.38-14.38,6.47,0,11.01,1.65,15.21,5.57l-4.75,4.68c-3.03-2.89-6.54-3.79-10.67-3.79-5.78,0-8.95,3.3-8.95,7.64,0,1.79,.55,3.37,1.86,4.54,1.24,1.1,3.23,1.93,5.5,2.27l5.58,.83c4.54,.69,7.09,1.79,9.15,3.65,2.68,2.34,3.99,5.85,3.99,10.05,0,9.02-7.36,14.38-17.62,14.38"/>
  <path class="cls-5"
        d="M358.86,59.41c-5.09,0-9.5-1.86-12.87-5.23-4.82-4.82-4.75-10.25-4.75-19.68s-.07-14.86,4.75-19.68c3.37-3.37,7.77-5.23,12.87-5.23,9.01,0,15.76,5.3,17.48,15.07h-7.57c-1.17-4.96-4.47-8.4-9.91-8.4-2.89,0-5.51,1.1-7.23,2.96-2.41,2.61-2.96,5.44-2.96,15.28s.55,12.66,2.96,15.28c1.72,1.86,4.34,2.96,7.23,2.96,5.44,0,8.81-3.44,9.98-8.39h7.5c-1.65,9.77-8.6,15.07-17.48,15.07"/>
  <path class="cls-5"
        d="M408.4,59l-10.32-20.64h-9.29v20.64h-7.43V10h18.99c9.29,0,15.21,5.99,15.21,14.31,0,7.02-4.27,11.49-9.77,13.01l11.29,21.68h-8.68Zm-8.6-42.32h-11.01v15.35h11.01c4.95,0,8.33-2.82,8.33-7.64s-3.37-7.71-8.33-7.71"/>
  <polygon class="cls-5"
           points="421.85 59 421.85 10 453.16 10 453.16 16.67 429.28 16.67 429.28 30.99 449.65 30.99 449.65 37.59 429.28 37.59 429.28 52.32 453.16 52.32 453.16 59 421.85 59"/>
  <polygon class="cls-5"
           points="458.27 59 458.27 10 489.58 10 489.58 16.67 465.7 16.67 465.7 30.99 486.07 30.99 486.07 37.59 465.7 37.59 465.7 52.32 489.58 52.32 489.58 59 458.27 59"/>
  <polygon class="cls-5"
           points="524.75 59 502.11 24.52 502.11 59 494.68 59 494.68 10 501.5 10 524.14 44.41 524.14 10 531.57 10 531.57 59 524.75 59"/>
  <path class="cls-4"
        d="M97.77,89.42c-2.81,0-4.65-.71-6.4-2.47l1.37-1.36c1.55,1.55,2.99,2.05,5.09,2.05,2.73,0,4.41-1.29,4.41-3.46,0-.97-.29-1.81-.89-2.34-.6-.52-1.08-.68-2.44-.89l-2.18-.34c-1.47-.24-2.62-.71-3.44-1.42-.95-.84-1.42-1.99-1.42-3.49,0-3.18,2.28-5.28,5.98-5.28,2.39,0,3.96,.6,5.56,2.05l-1.29,1.29c-1.15-1.05-2.39-1.6-4.36-1.6-2.49,0-3.94,1.39-3.94,3.46,0,.92,.26,1.66,.84,2.15,.58,.5,1.55,.87,2.52,1.02l2.05,.32c1.76,.26,2.62,.63,3.41,1.31,1.02,.87,1.57,2.15,1.57,3.7,0,3.28-2.57,5.3-6.46,5.3"/>
  <polygon class="cls-4"
           points="121.95 89.26 121.95 75.06 116.83 86.32 115.13 86.32 109.93 75.06 109.93 89.26 107.93 89.26 107.93 70.58 109.93 70.58 116.02 83.83 121.95 70.58 123.94 70.58 123.94 89.26 121.95 89.26"/>
  <path class="cls-4"
        d="M140.41,89.26l-1.5-4.23h-8.16l-1.5,4.23h-2.13l6.88-18.69h1.68l6.85,18.69h-2.12Zm-5.54-15.83l-3.52,9.87h6.98l-3.46-9.87h0Z"/>
  <path class="cls-4"
        d="M156.43,89.26l-4.25-8.29h-4.49v8.29h-1.99v-18.69h7.17c3.25,0,5.54,1.97,5.54,5.2,0,2.73-1.65,4.51-4.07,5.01l4.44,8.48h-2.35Zm-3.75-16.9h-4.99v6.85h4.99c2.18,0,3.73-1.13,3.73-3.41s-1.55-3.44-3.73-3.44"/>
  <polygon class="cls-4"
           points="168.34 72.36 168.34 89.26 166.35 89.26 166.35 72.36 160.94 72.36 160.94 70.58 173.75 70.58 173.75 72.36 168.34 72.36"/>
  <polygon class="cls-4"
           points="185.51 72.36 185.51 79.24 193.7 79.24 193.7 81.02 185.51 81.02 185.51 89.26 183.52 89.26 183.52 70.58 195.12 70.58 195.12 72.36 185.51 72.36"/>
  <rect class="cls-4" x="198.56" y="70.58" width="1.99" height="18.69"/>
  <polygon class="cls-4"
           points="205.21 89.26 205.21 70.58 207.21 70.58 207.21 87.48 216.76 87.48 216.76 89.26 205.21 89.26"/>
  <polygon class="cls-4"
           points="234.16 89.26 234.16 75.06 229.04 86.32 227.33 86.32 222.14 75.06 222.14 89.26 220.14 89.26 220.14 70.58 222.14 70.58 228.22 83.83 234.16 70.58 236.15 70.58 236.15 89.26 234.16 89.26"/>
  <path class="cls-4"
        d="M252.64,89.42c-2.81,0-4.65-.71-6.4-2.47l1.36-1.36c1.55,1.55,2.99,2.05,5.09,2.05,2.73,0,4.41-1.29,4.41-3.46,0-.97-.29-1.81-.89-2.34-.6-.52-1.08-.68-2.44-.89l-2.18-.34c-1.47-.24-2.62-.71-3.44-1.42-.95-.84-1.42-1.99-1.42-3.49,0-3.18,2.28-5.28,5.98-5.28,2.39,0,3.96,.6,5.56,2.05l-1.29,1.29c-1.15-1.05-2.39-1.6-4.35-1.6-2.49,0-3.94,1.39-3.94,3.46,0,.92,.26,1.66,.84,2.15,.58,.5,1.55,.87,2.52,1.02l2.05,.32c1.76,.26,2.62,.63,3.41,1.31,1.02,.87,1.58,2.15,1.58,3.7,0,3.28-2.57,5.3-6.46,5.3"/>
  <path class="cls-4"
        d="M273.74,87.48c-1.26,1.26-2.91,1.94-4.78,1.94s-3.52-.68-4.78-1.94c-1.76-1.76-1.76-3.6-1.76-7.56s0-5.8,1.76-7.56c1.26-1.26,2.91-1.94,4.78-1.94s3.52,.68,4.78,1.94c1.76,1.76,1.76,3.6,1.76,7.56s0,5.8-1.76,7.56m-1.55-13.94c-.81-.84-2-1.34-3.23-1.34s-2.42,.5-3.23,1.34c-1.18,1.21-1.31,2.47-1.31,6.38s.13,5.17,1.31,6.38c.81,.84,1.99,1.34,3.23,1.34s2.42-.5,3.23-1.34c1.18-1.21,1.31-2.47,1.31-6.38s-.13-5.17-1.31-6.38"/>
  <polygon class="cls-4"
           points="279.67 89.26 279.67 70.58 281.66 70.58 281.66 87.48 291.22 87.48 291.22 89.26 279.67 89.26"/>
  <path class="cls-4"
        d="M300.24,89.42c-3.78,0-6.51-2.6-6.51-6.32v-12.52h1.99v12.36c0,2.83,1.79,4.7,4.52,4.7s4.54-1.86,4.54-4.7v-12.36h1.99v12.52c0,3.73-2.76,6.32-6.53,6.32"/>
  <polygon class="cls-4"
           points="317.45 72.36 317.45 89.26 315.45 89.26 315.45 72.36 310.05 72.36 310.05 70.58 322.85 70.58 322.85 72.36 317.45 72.36"/>
  <rect class="cls-4" x="326.23" y="70.58" width="1.99" height="18.69"/>
  <path class="cls-4"
        d="M343.69,87.48c-1.26,1.26-2.91,1.94-4.78,1.94s-3.52-.68-4.78-1.94c-1.76-1.76-1.76-3.6-1.76-7.56s0-5.8,1.76-7.56c1.26-1.26,2.91-1.94,4.78-1.94s3.52,.68,4.78,1.94c1.76,1.76,1.76,3.6,1.76,7.56s0,5.8-1.76,7.56m-1.55-13.94c-.81-.84-2-1.34-3.23-1.34s-2.42,.5-3.23,1.34c-1.18,1.21-1.31,2.47-1.31,6.38s.13,5.17,1.31,6.38c.81,.84,1.99,1.34,3.23,1.34s2.42-.5,3.23-1.34c1.18-1.21,1.31-2.47,1.31-6.38s-.13-5.17-1.31-6.38"/>
  <polygon class="cls-4"
           points="361.54 89.26 351.62 74.28 351.62 89.26 349.62 89.26 349.62 70.58 351.51 70.58 361.43 85.51 361.43 70.58 363.43 70.58 363.43 89.26 361.54 89.26"/>
  <path class="cls-4"
        d="M373.38,89.42c-2.81,0-4.65-.71-6.4-2.47l1.36-1.36c1.55,1.55,2.99,2.05,5.09,2.05,2.73,0,4.41-1.29,4.41-3.46,0-.97-.29-1.81-.89-2.34-.6-.52-1.08-.68-2.44-.89l-2.18-.34c-1.47-.24-2.62-.71-3.44-1.42-.95-.84-1.42-1.99-1.42-3.49,0-3.18,2.28-5.28,5.98-5.28,2.39,0,3.96,.6,5.56,2.05l-1.29,1.29c-1.15-1.05-2.39-1.6-4.36-1.6-2.49,0-3.94,1.39-3.94,3.46,0,.92,.26,1.66,.84,2.15,.58,.5,1.55,.87,2.52,1.02l2.05,.32c1.76,.26,2.62,.63,3.41,1.31,1.02,.87,1.58,2.15,1.58,3.7,0,3.28-2.57,5.3-6.46,5.3"/>
</svg>
