<svg width="211" height="27" viewBox="0 0 211 27" xmlns="http://www.w3.org/2000/svg">
  <path data-part="star"
    d="M39.3402 18.1408C35.7395 18.1408 32.1388 14.5401 32.1388 10.9395C32.1388 14.5401 28.5382 18.1408 24.9375 18.1408C28.5382 18.1408 32.1388 21.7415 32.1388 25.3422C32.1388 21.7415 35.7395 18.1408 39.3402 18.1408V18.1408Z"
    fill="#00D749" />
  <path data-part="VA"
    d="M21.1349 25.3405L32.1394 4.55848L43.1439 25.3405H49.2486L36.1631 0.625H28.1137L17.1112 21.4091L6.10671 0.625H0L13.0855 25.3405H21.1349Z"
  />
  <path data-part="desktop"
    d="M51.6348 0.625H59.596L76.9779 20.4046V0.625H82.3669V25.3405H74.4057L57.0218 5.49273V25.3405H51.6328V0.625H51.6348Z"
  />
  <path data-part="desktop"
    d="M87.3262 0.625H92.7152V13.2434L108.497 0.625H116.527L103.908 10.7053L116.527 25.3405H109.887L99.9446 13.903L92.7132 19.709V25.3405H87.3242V0.625H87.3262Z"
  />
  <path data-part="desktop"
    d="M117.527 17.1032H123.125C123.125 20.5796 125.976 22.0391 133.033 22.0391C139.324 22.0391 141.688 21.0307 141.688 18.4244C141.688 15.8181 139.879 15.4011 132.754 14.948L131.399 14.8438C121.735 14.2523 118.189 12.2375 118.189 7.12717C118.189 2.01686 123.089 0 131.746 0C141.2 0 146.032 2.85087 146.206 8.51652H140.645C140.645 5.07422 137.447 3.99763 131.433 3.99763C125.767 3.99763 123.75 4.93589 123.75 7.16125C123.75 9.69937 125.593 10.2908 132.163 10.7419L133.622 10.8461C142.277 11.5057 147.249 12.2375 147.249 18.25C147.249 24.2624 141.93 26.0367 133.101 26.0367C123.089 26.0367 117.736 23.7773 117.527 17.1032V17.1032Z"
  />
  <path data-part="desktop"
    d="M150.855 0.625H175.363V4.76096H156.242V11.0521H174.667V14.8753H156.242V21.2026H175.363V25.3385H150.855V0.625Z"
  />
  <path data-part="desktop"
    d="M179.316 0.625H187.278L204.659 20.4046V0.625H210.048V25.3405H202.087L184.705 5.49072V25.3405H179.316V0.625Z"
  />
</svg>