<svg width="61" height="60" viewBox="0 0 61 60" fill="none" xmlns="http://www.w3.org/2000/svg">
<path d="M0 0V60H60.0963V0H0ZM32.7042 46.7946C32.7042 52.6339 29.2701 55.2991 24.2666 55.2991C19.7459 55.2991 17.1301 52.9687 15.7887 50.1429L20.3898 47.3705C21.2752 48.9375 22.08 50.2634 24.0251 50.2634C25.8763 50.2634 27.0568 49.5402 27.0568 46.7143V27.5491H32.7042V46.7946ZM46.0649 55.2991C40.8199 55.2991 37.4261 52.808 35.7761 49.5402L40.3772 46.8884C41.5845 48.8571 43.1674 50.317 45.9442 50.317C48.2783 50.317 49.7807 49.1518 49.7807 47.5312C49.7807 45.6027 48.2514 44.9196 45.6625 43.7812L44.254 43.1786C40.176 41.4509 37.4797 39.2679 37.4797 34.6741C37.4797 30.442 40.7126 27.2277 45.743 27.2277C49.338 27.2277 51.9136 28.4732 53.7647 31.7411L49.3648 34.5536C48.399 32.8259 47.3527 32.1429 45.7295 32.1429C44.0796 32.1429 43.0332 33.1875 43.0332 34.5536C43.0332 36.2411 44.0796 36.9241 46.5076 37.9821L47.9161 38.5848C52.7184 40.6339 55.4147 42.7366 55.4147 47.4509C55.4147 52.5134 51.4172 55.2991 46.0649 55.2991Z" fill="#F0DB4F"/>
</svg>
