<svg width="66" height="60" viewBox="0 0 66 60" fill="none" xmlns="http://www.w3.org/2000/svg">
<path d="M53.9057 19.4437C53.2097 19.2027 52.5136 18.975 51.8175 18.7607C51.9336 18.2652 52.0367 17.7697 52.1398 17.2742C53.7253 9.29247 52.6812 2.87764 49.1622 0.761677C45.7722 -1.26054 40.2424 0.84203 34.6481 5.90426C34.0939 6.39977 33.5525 6.92206 33.0369 7.44436C32.6889 7.09616 32.328 6.74796 31.967 6.41316C26.1021 1.00274 20.2243 -1.27393 16.7054 0.855422C13.3282 2.89103 12.3228 8.93088 13.7407 16.4841C13.8825 17.234 14.0371 17.9706 14.2176 18.7205C13.3926 18.9616 12.5806 19.2294 11.8201 19.5107C4.93685 21.9882 0 25.8987 0 29.9432C0 34.1215 5.25909 38.3132 12.413 40.8577C12.9931 41.0586 13.5731 41.2595 14.166 41.4336C13.9727 42.2371 13.8051 43.0273 13.6504 43.8442C12.297 51.2768 13.354 57.1694 16.7311 59.1916C20.2114 61.2808 26.0635 59.138 31.7608 53.9553C32.212 53.5401 32.6631 53.1116 33.1142 52.6562C33.6814 53.2321 34.2743 53.7812 34.8673 54.3169C40.3842 59.2452 45.8366 61.2406 49.2009 59.2184C52.6812 57.1292 53.8155 50.7947 52.346 43.0808C52.23 42.4916 52.1011 41.8889 51.9593 41.2729C52.3718 41.1524 52.7714 41.0185 53.171 40.8845C60.6085 38.3266 65.9965 34.1885 65.9965 29.9432C65.9965 25.8853 60.9178 21.948 53.9057 19.4437ZM36.4656 8.07379C41.2607 3.73473 45.7335 2.03393 47.7701 3.25262C49.9485 4.55165 50.7864 9.80137 49.42 16.6983C49.3298 17.1537 49.2396 17.5956 49.1236 18.0375C46.262 17.3679 43.3617 16.8858 40.4486 16.618C38.7729 14.127 36.9426 11.7432 34.9575 9.50675C35.4602 9.01124 35.95 8.54251 36.4656 8.07379ZM21.552 36.8937C22.2094 38.0588 22.8796 39.2239 23.5886 40.3622C21.5778 40.1346 19.5798 39.7998 17.6077 39.3578C18.1748 37.4294 18.8838 35.4339 19.7087 33.3983C20.3016 34.5768 20.9075 35.742 21.552 36.8937ZM17.6463 20.7829C19.5025 20.3544 21.4746 20.0062 23.5241 19.7383C22.841 20.8499 22.1707 21.9882 21.5391 23.1399C20.9075 24.2783 20.2888 25.4434 19.7087 26.6219C18.8966 24.6265 18.2135 22.6712 17.6463 20.7829ZM21.1782 30.0101C22.0289 28.162 22.957 26.3541 23.9366 24.5729C24.9162 22.7917 25.9732 21.0642 27.0818 19.3634C29.0152 19.216 30.9874 19.1357 32.9982 19.1357C35.0091 19.1357 36.9941 19.216 38.9147 19.3634C40.0104 21.0508 41.0545 22.7784 42.047 24.5461C43.0395 26.3139 43.9676 28.1218 44.8441 29.9565C43.9805 31.8047 43.0524 33.626 42.0599 35.4205C41.0802 37.2017 40.0361 38.9293 38.9405 40.6435C37.0199 40.7908 35.022 40.8577 32.9982 40.8577C30.9745 40.8577 29.0152 40.7908 27.1204 40.6703C25.999 38.9695 24.942 37.2285 23.9495 35.4473C22.957 33.6662 22.0418 31.8582 21.1782 30.0101ZM44.4574 36.8669C45.1148 35.6884 45.7335 34.4965 46.3393 33.2912C47.1643 35.233 47.8861 37.2017 48.5177 39.2239C46.5198 39.6926 44.4961 40.0542 42.4594 40.2953C43.1555 39.1703 43.8129 38.0186 44.4574 36.8669ZM46.3135 26.6219C45.7077 25.4434 45.089 24.2649 44.4445 23.1132C43.8129 21.9748 43.1555 20.8499 42.4723 19.7383C44.5476 20.0062 46.5327 20.3678 48.3888 20.8097C47.7959 22.7917 47.0998 24.7202 46.3135 26.6219ZM33.024 11.5557C34.3775 13.0824 35.6536 14.6895 36.8394 16.3501C34.2872 16.2296 31.7221 16.2296 29.1699 16.3501C30.4331 14.6225 31.735 13.0155 33.024 11.5557ZM18.0717 3.34636C20.2372 2.03393 25.0451 3.90883 30.1109 8.5693C30.4331 8.86392 30.7554 9.18533 31.0905 9.50675C29.0926 11.7432 27.2493 14.127 25.5607 16.618C22.6476 16.8858 19.7603 17.3545 16.8987 18.0108C16.7311 17.3278 16.5893 16.6314 16.4476 15.935C15.2359 9.45318 16.0351 4.56505 18.0717 3.34636ZM14.9137 38.648C14.3723 38.4873 13.8438 38.3132 13.3153 38.1258C10.5697 37.2285 7.45038 35.8089 5.19464 33.9474C3.89276 33.01 3.01625 31.5636 2.77134 29.9432C2.77134 27.4924 6.84456 24.3586 12.7224 22.2293C13.4571 21.9614 14.2047 21.7204 14.9523 21.4927C15.8288 24.3988 16.8858 27.2513 18.1104 30.0101C16.8729 32.8091 15.8031 35.7018 14.9137 38.648ZM29.9433 51.7723C27.8165 53.7946 25.3545 55.4016 22.6734 56.4998C21.2426 57.2096 19.5927 57.2765 18.1233 56.6739C16.0738 55.4418 15.223 50.7144 16.3831 44.3531C16.5249 43.6031 16.6796 42.8532 16.86 42.1166C19.7474 42.7594 22.6605 43.2014 25.6123 43.429C27.3138 45.9334 29.1828 48.3306 31.1808 50.5804C30.7683 50.9956 30.3558 51.3974 29.9433 51.7723ZM33.1014 48.5181C31.7866 47.0449 30.4718 45.4111 29.1957 43.6567C30.4331 43.7103 31.7092 43.7371 32.9982 43.7371C34.3259 43.7371 35.6278 43.7103 36.9168 43.6433C35.7309 45.3441 34.4548 46.9646 33.1014 48.5181ZM49.9485 52.5357C49.8325 54.1695 49.0591 55.6962 47.8217 56.7274C45.7722 57.9595 41.4025 56.3525 36.6848 52.1473C36.1434 51.6652 35.602 51.1429 35.0477 50.6072C37.0199 48.344 38.8374 45.9468 40.4873 43.429C43.4391 43.1746 46.378 42.7059 49.2782 42.0229C49.4071 42.5719 49.5231 43.121 49.6263 43.6567C50.2579 46.5494 50.361 49.5626 49.9485 52.5357ZM52.2945 38.1391C51.9336 38.2597 51.5726 38.3802 51.1988 38.4873C50.2965 35.5679 49.188 32.7153 47.9119 29.9432C49.1493 27.2112 50.1934 24.3988 51.0699 21.5195C51.7402 21.7204 52.3847 21.9347 53.0034 22.1489C59.0101 24.2917 63.2251 27.479 63.2251 29.9164C63.2251 32.5412 58.7266 35.9294 52.2945 38.1391ZM32.9982 36.1303C36.2594 36.1303 38.9018 33.3849 38.9018 29.9967C38.9018 26.6085 36.2594 23.8631 32.9982 23.8631C29.7371 23.8631 27.0946 26.6085 27.0946 29.9967C27.0946 33.3849 29.7371 36.1303 32.9982 36.1303Z" fill="#61DBFB"/>
</svg>
