<svg width="80" height="60" viewBox="0 0 80 60" fill="none" xmlns="http://www.w3.org/2000/svg">
<path d="M37.73 45.3608C37.655 45.4958 37.6925 45.4358 37.73 45.3608V45.3608ZM68.8716 34.4867C66.3575 34.4858 63.8769 35.0632 61.6215 36.174C60.884 34.6866 60.1215 33.3867 59.9965 32.4118C59.8465 31.2744 59.684 30.5995 59.859 29.2496C60.034 27.8997 60.8215 25.9874 60.809 25.8499C60.7965 25.7124 60.634 25.0249 59.0215 25.0124C57.409 24.9999 56.0215 25.3249 55.8602 25.7499C55.5754 26.5265 55.3539 27.3249 55.1977 28.1372C54.9102 29.5996 51.9739 34.8241 50.3114 37.5489C49.7614 36.4865 49.2989 35.5491 49.1989 34.7991C49.0489 33.6617 48.8864 32.9868 49.0614 31.6369C49.2364 30.287 50.0239 28.3747 50.0114 28.2372C49.9989 28.0997 49.8364 27.4122 48.2251 27.3997C46.6138 27.3872 45.2251 27.7122 45.0626 28.1372C44.9001 28.5621 44.7251 29.5621 44.4001 30.5245C44.0751 31.4869 40.1638 40.1862 39.14 42.4485C38.615 43.5984 38.165 44.5233 37.84 45.1483C37.79 45.2483 37.7525 45.3108 37.7275 45.3608C37.765 45.2983 37.79 45.2358 37.79 45.2608C37.515 45.7982 37.3525 46.0982 37.3525 46.0982V46.1107C37.14 46.5107 36.9025 46.8731 36.79 46.8731C36.715 46.8731 36.5525 45.8232 36.8275 44.3859C37.415 41.3611 38.8025 36.6615 38.79 36.499C38.7775 36.4115 39.0525 35.5991 37.8775 35.1616C36.74 34.7491 36.3275 35.4366 36.2275 35.4366C36.1275 35.4366 36.0525 35.6866 36.0525 35.6866C36.0525 35.6866 37.315 30.387 33.6287 30.387C31.3287 30.387 28.1286 32.9118 26.5561 35.1991C25.5686 35.7366 23.4311 36.899 21.1811 38.1364C20.3185 38.6113 19.431 39.0988 18.5935 39.5612C18.531 39.4987 18.481 39.4363 18.4185 39.3738C13.9447 34.5991 5.68462 31.2244 6.03463 24.8124C6.15963 22.4751 6.97214 16.3381 21.9186 8.88875C34.1687 2.78924 43.9626 4.46411 45.6488 8.1888C48.0739 13.5009 40.4125 23.3876 27.6911 24.8124C22.8423 25.3499 20.2935 23.4751 19.656 22.7751C18.9935 22.0377 18.8935 22.0002 18.6435 22.1377C18.231 22.3626 18.4935 23.0126 18.6435 23.4001C19.0185 24.3875 20.581 26.1373 23.2423 27.0123C25.5799 27.7747 31.2649 28.1997 38.1387 25.5374C45.8613 22.5626 51.8727 14.2758 50.1101 7.33887C48.3151 0.289446 36.625 -2.02287 25.5711 1.90181C18.9848 4.23912 11.8622 7.91383 6.73838 12.7009C0.652062 18.4005 -0.321699 23.3626 0.0783055 25.4374C1.50207 32.7993 11.6497 37.5989 15.711 41.1486C15.511 41.2611 15.3235 41.3611 15.1485 41.4611C13.1122 42.4735 5.37587 46.5232 3.43959 50.7978C1.25207 55.6474 3.8021 59.1222 5.47587 59.5971C10.6997 61.047 16.0485 58.4347 18.9223 54.1476C21.7961 49.8604 21.4473 44.2609 20.1223 41.7111C20.1098 41.6736 20.0848 41.6486 20.0723 41.6111C20.5973 41.2986 21.1348 40.9861 21.6723 40.6737C22.7086 40.0612 23.7211 39.4987 24.6086 39.0113C24.1086 40.3612 23.7461 41.986 23.5586 44.3359C23.3336 47.0856 24.4711 50.6478 25.9461 52.0477C26.5961 52.6602 27.3824 52.6727 27.8699 52.6727C29.5949 52.6727 30.3699 51.2478 31.2312 49.5479C32.2937 47.4731 33.2312 45.0608 33.2312 45.0608C33.2312 45.0608 32.0562 51.5853 35.2687 51.5853C36.4425 51.5853 37.6175 50.0729 38.1437 49.298V49.3105C38.1437 49.3105 38.1688 49.2605 38.2313 49.1605C38.3563 48.973 38.4188 48.8605 38.4188 48.8605V48.823C38.8938 48.0106 39.9313 46.1482 41.4925 43.0735C43.5176 39.0988 45.4538 34.1367 45.4538 34.1367C45.6409 35.2275 45.8998 36.3047 46.2288 37.3614C46.5788 38.5488 47.3164 39.8487 47.9039 41.1111C47.4289 41.7611 47.1414 42.136 47.1414 42.136C47.1423 42.1456 47.1467 42.1545 47.1539 42.161C46.7789 42.661 46.3538 43.1985 45.9163 43.7234C44.3176 45.6233 42.4163 47.7981 42.1663 48.423C41.8663 49.1605 41.9413 49.7104 42.5163 50.1354C42.9413 50.4604 43.6913 50.5104 44.4776 50.4479C45.9151 50.3479 46.9276 49.9979 47.4151 49.7729C48.3138 49.4507 49.1633 49.0048 49.9389 48.448C51.5014 47.2981 52.4514 45.6483 52.3639 43.4734C52.3139 42.2735 51.9264 41.0736 51.4514 39.9487C51.5889 39.7487 51.7389 39.5362 51.8764 39.3238C54.3502 35.7116 56.2627 31.7469 56.2627 31.7469C56.4498 32.8377 56.7087 33.9149 57.0377 34.9716C57.3377 35.984 57.924 37.0964 58.4615 38.1839C56.1377 40.0712 54.7002 42.2585 54.2002 43.6959C53.2752 46.3582 54.0002 47.5581 55.3627 47.8331C55.9752 47.9581 56.8502 47.6706 57.5002 47.3956C58.4656 47.0741 59.3758 46.6062 60.199 46.0082C61.7615 44.8583 63.2728 43.2459 63.1728 41.0586C63.1353 40.0712 62.8603 39.0838 62.4978 38.1339C64.4603 37.3089 67.0091 36.859 70.2591 37.2339C77.2192 38.0464 78.5817 42.396 78.3192 44.2084C78.0567 46.0207 76.5942 47.0331 76.1067 47.3331C75.6192 47.6331 75.4692 47.7456 75.5067 47.9706C75.5692 48.2955 75.7942 48.283 76.2067 48.208C76.7817 48.1081 79.8555 46.7332 79.993 43.3709C80.193 39.1213 76.1067 34.4467 68.8679 34.4842L68.8716 34.4867ZM15.2235 52.5727C12.9247 55.085 9.69967 56.0349 8.3134 55.235C6.82588 54.37 7.41339 50.6728 10.2497 47.9956C11.9747 46.3707 14.1985 44.8708 15.6735 43.9459C16.011 43.7459 16.4985 43.4459 17.0985 43.0835C17.1985 43.021 17.2485 42.996 17.2485 42.996C17.361 42.921 17.486 42.8585 17.611 42.7835C18.6473 46.5832 17.6485 49.9329 15.2235 52.5702V52.5727ZM32.0187 41.1486C31.2187 43.111 29.5324 48.1105 28.5074 47.8481C27.6324 47.6231 27.0949 43.8109 28.3324 40.0612C28.9574 38.1739 30.2824 35.924 31.0699 35.0491C32.3312 33.6367 33.7187 33.1868 34.0437 33.7492C34.4812 34.4867 32.5187 39.9237 32.0187 41.1486ZM45.8938 47.7731C45.5563 47.9481 45.2438 48.0606 45.0938 47.9731C44.9813 47.9106 45.2313 47.6731 45.2313 47.6731C45.2313 47.6731 46.9689 45.8107 47.6564 44.9608C48.0564 44.4608 48.5189 43.8734 49.0176 43.2234C49.0176 43.2859 49.0301 43.3484 49.0301 43.4234C49.0139 45.6608 46.8651 47.1731 45.8901 47.7731H45.8938ZM56.5915 45.3358C56.3415 45.1608 56.379 44.5733 57.2165 42.7485C57.5415 42.036 58.2902 40.8361 59.5915 39.6862C59.7388 40.1215 59.8189 40.5767 59.829 41.0361C59.8165 43.8484 57.804 44.8983 56.5927 45.3358H56.5915Z" fill="#CC6699"/>
</svg>
